<?xml version="1.0"?>
<svg xmlns="http://www.w3.org/2000/svg" viewBox="0 0 64 64" width="512" height="512"><title>UI-UX-Design-phone-application</title><g id="FillOutline"><rect x="16" y="7" width="32" height="50" style="fill:#dfd9d3"/><rect x="16" y="15" width="32" height="34" style="fill:#56a8c6"/><rect x="8" y="19" width="24" height="8" style="fill:#f7931e"/><rect x="39" y="37" width="18" height="16" style="fill:#f7931e"/><rect x="28" y="32" width="4" height="4" style="fill:#fbb03b"/><rect x="20" y="32" width="4" height="4" style="fill:#fbb03b"/><circle cx="40" cy="22" r="3" style="fill:#fbb03b"/><path d="M40,25h0a4,4,0,0,1,4,4v4a0,0,0,0,1,0,0H36a0,0,0,0,1,0,0V29A4,4,0,0,1,40,25Z" style="fill:#fbb03b"/><rect x="33" y="10" width="2" height="2"/><rect x="29" y="10" width="2" height="2"/><rect x="31" y="52" width="2" height="2"/><rect x="11" y="22" width="2" height="2"/><rect x="15" y="22" width="2" height="2"/><rect x="19" y="22" width="2" height="2"/><rect x="23" y="22" width="2" height="2"/><rect x="27" y="22" width="2" height="2"/><rect x="42" y="40" width="2" height="2"/><rect x="46" y="40" width="8" height="2"/><rect x="42" y="44" width="12" height="2"/><rect x="42" y="48" width="12" height="2"/><path d="M15,7V18H8a1,1,0,0,0-1,1v8a1,1,0,0,0,1,1h7V57a1,1,0,0,0,1,1H48a1,1,0,0,0,1-1V54h8a1,1,0,0,0,1-1V37a1,1,0,0,0-1-1H49V7a1,1,0,0,0-1-1H16A1,1,0,0,0,15,7ZM9,20H31v6H9ZM47,56H17V50H38v3a1,1,0,0,0,1,1h8Zm9-4H40V38H56ZM39,36a1,1,0,0,0-1,1V48H17V28H32a1,1,0,0,0,1-1V19a1,1,0,0,0-1-1H17V16H47V36ZM47,8v6H17V8Z"/><path d="M32,31H28a1,1,0,0,0-1,1v4a1,1,0,0,0,1,1h4a1,1,0,0,0,1-1V32A1,1,0,0,0,32,31Zm-1,4H29V33h2Z"/><path d="M20,37h4a1,1,0,0,0,1-1V32a1,1,0,0,0-1-1H20a1,1,0,0,0-1,1v4A1,1,0,0,0,20,37Zm1-4h2v2H21Z"/><path d="M42.793,24.855a4,4,0,1,0-5.586,0A5,5,0,0,0,35,29v4a1,1,0,0,0,1,1h8a1,1,0,0,0,1-1V29A5,5,0,0,0,42.793,24.855ZM38,22a2,2,0,1,1,2,2A2,2,0,0,1,38,22Zm5,10H37V29a3,3,0,0,1,6,0Z"/><rect x="19" y="39" width="2" height="2"/><rect x="23" y="39" width="10" height="2"/><rect x="19" y="43" width="14" height="2"/><rect x="26" y="60" width="20" height="2"/><rect x="11" y="31" width="2" height="16"/><path d="M53,6a4,4,0,0,0-4-4H36V4H49a2,2,0,0,1,2,2V22h2Z"/><rect x="51" y="24" width="2" height="2"/></g></svg>
